<?xml version="1.0" encoding="UTF-8"?>
<svg xmlns="http://www.w3.org/2000/svg" viewBox="0 0 1400 2000" width="1400" height="2000" font-family="Arial, sans-serif">

  <!-- Background -->
  <rect width="1400" height="2000" fill="#f8fafc"/>

  <!-- ====== TITLE ====== -->
  <rect x="300" y="30" width="800" height="50" rx="10" fill="#1e293b"/>
  <text x="700" y="62" text-anchor="middle" fill="white" font-size="20" font-weight="bold">Flostok SCM Platform - System Flowchart</text>

  <!-- ====== ROW 1: AUTH ====== -->
  <!-- 방문자 -->
  <ellipse cx="120" cy="160" rx="80" ry="35" fill="#dbeafe" stroke="#3b82f6" stroke-width="2"/>
  <text x="120" y="155" text-anchor="middle" fill="#1e40af" font-size="13" font-weight="bold">방문자</text>
  <text x="120" y="172" text-anchor="middle" fill="#1e40af" font-size="11">로그인</text>

  <!-- Arrow -->
  <line x1="202" y1="160" x2="238" y2="160" stroke="#64748b" stroke-width="2" marker-end="url(#arr)"/>

  <!-- Clerk -->
  <rect x="240" y="135" width="130" height="50" rx="8" fill="#fef3c7" stroke="#f59e0b" stroke-width="2"/>
  <text x="305" y="157" text-anchor="middle" fill="#92400e" font-size="12" font-weight="bold">Clerk Auth</text>
  <text x="305" y="175" text-anchor="middle" fill="#92400e" font-size="10">이메일/소셜 인증</text>

  <!-- Arrow -->
  <line x1="372" y1="160" x2="408" y2="160" stroke="#64748b" stroke-width="2" marker-end="url(#arr)"/>

  <!-- 조직 선택 -->
  <rect x="410" y="135" width="130" height="50" rx="8" fill="#dcfce7" stroke="#22c55e" stroke-width="2"/>
  <text x="475" y="157" text-anchor="middle" fill="#14532d" font-size="12" font-weight="bold">조직 선택</text>
  <text x="475" y="175" text-anchor="middle" fill="#14532d" font-size="10">멀티테넌트</text>

  <!-- Arrow -->
  <line x1="542" y1="160" x2="578" y2="160" stroke="#64748b" stroke-width="2" marker-end="url(#arr)"/>

  <!-- 대시보드 -->
  <rect x="580" y="130" width="160" height="60" rx="8" fill="#1e293b" stroke="#475569" stroke-width="2"/>
  <text x="660" y="157" text-anchor="middle" fill="white" font-size="14" font-weight="bold">대시보드</text>
  <text x="660" y="175" text-anchor="middle" fill="#94a3b8" font-size="10">/dashboard · KPI 요약</text>

  <!-- Arrow to menus -->
  <line x1="740" y1="160" x2="776" y2="160" stroke="#64748b" stroke-width="2" marker-end="url(#arr)"/>

  <!-- Menu boxes -->
  <rect x="778" y="130" width="90" height="30" rx="5" fill="#e2e8f0" stroke="#94a3b8" stroke-width="1"/>
  <text x="823" y="150" text-anchor="middle" fill="#374151" font-size="11">제품관리</text>

  <rect x="878" y="130" width="90" height="30" rx="5" fill="#e2e8f0" stroke="#94a3b8" stroke-width="1"/>
  <text x="923" y="150" text-anchor="middle" fill="#374151" font-size="11">재고관리</text>

  <rect x="978" y="130" width="90" height="30" rx="5" fill="#e2e8f0" stroke="#94a3b8" stroke-width="1"/>
  <text x="1023" y="150" text-anchor="middle" fill="#374151" font-size="11">분석·예측</text>

  <rect x="778" y="170" width="90" height="30" rx="5" fill="#e2e8f0" stroke="#94a3b8" stroke-width="1"/>
  <text x="823" y="190" text-anchor="middle" fill="#374151" font-size="11">PSI 계획</text>

  <rect x="878" y="170" width="90" height="30" rx="5" fill="#e2e8f0" stroke="#94a3b8" stroke-width="1"/>
  <text x="923" y="190" text-anchor="middle" fill="#374151" font-size="11">공급자관리</text>

  <rect x="978" y="170" width="90" height="30" rx="5" fill="#e2e8f0" stroke="#94a3b8" stroke-width="1"/>
  <text x="1023" y="190" text-anchor="middle" fill="#374151" font-size="11">발주관리</text>

  <!-- Divider -->
  <line x1="40" y1="220" x2="1360" y2="220" stroke="#cbd5e1" stroke-width="1" stroke-dasharray="6,4"/>

  <!-- ====== ROW 2: PRODUCT + INVENTORY ====== -->
  <!-- PRODUCT section label -->
  <rect x="40" y="235" width="640" height="360" rx="12" fill="#f0fdf4" stroke="#86efac" stroke-width="1.5"/>
  <text x="60" y="260" fill="#15803d" font-size="13" font-weight="bold">2. 제품 마스터 관리</text>

  <rect x="60" y="270" width="600" height="50" rx="8" fill="#dcfce7" stroke="#22c55e" stroke-width="1.5"/>
  <text x="360" y="292" text-anchor="middle" fill="#14532d" font-size="12" font-weight="bold">제품 목록</text>
  <text x="360" y="309" text-anchor="middle" fill="#14532d" font-size="10">SKU · 카테고리 · 공급자 · 원가 · 판가</text>

  <line x1="360" y1="320" x2="360" y2="345" stroke="#64748b" stroke-width="1.5" marker-end="url(#arr)"/>

  <rect x="60" y="347" width="280" height="50" rx="8" fill="white" stroke="#86efac" stroke-width="1.5"/>
  <text x="200" y="369" text-anchor="middle" fill="#166534" font-size="12" font-weight="bold">제품 상세</text>
  <text x="200" y="386" text-anchor="middle" fill="#166534" font-size="10">원가/판가/리드타임/ABC등급</text>

  <rect x="380" y="347" width="280" height="50" rx="8" fill="white" stroke="#86efac" stroke-width="1.5"/>
  <text x="520" y="369" text-anchor="middle" fill="#166534" font-size="12" font-weight="bold">안전재고 파라미터</text>
  <text x="520" y="386" text-anchor="middle" fill="#166534" font-size="10">서비스율 Z · 리드타임 σLT</text>

  <line x1="360" y1="397" x2="360" y2="422" stroke="#64748b" stroke-width="1.5" marker-end="url(#arr)"/>

  <rect x="60" y="424" width="600" height="60" rx="8" fill="#fef9c3" stroke="#fde047" stroke-width="1.5"/>
  <text x="360" y="449" text-anchor="middle" fill="#713f12" font-size="12" font-weight="bold">안전재고 산출</text>
  <text x="360" y="465" text-anchor="middle" fill="#713f12" font-size="11">SS = Z x sigma_d x sqrt(LT)</text>
  <text x="360" y="479" text-anchor="middle" fill="#713f12" font-size="10">sigma = 1.25 x MAD  |  방식 1/2/3 자동 선택</text>

  <line x1="360" y1="484" x2="360" y2="509" stroke="#64748b" stroke-width="1.5" marker-end="url(#arr)"/>

  <rect x="60" y="511" width="600" height="50" rx="8" fill="white" stroke="#86efac" stroke-width="1.5"/>
  <text x="360" y="533" text-anchor="middle" fill="#166534" font-size="12" font-weight="bold">재발주점(ROP)</text>
  <text x="360" y="550" text-anchor="middle" fill="#166534" font-size="10">ROP = 평균일수요 x 리드타임 + 안전재고</text>

  <!-- INVENTORY section -->
  <rect x="720" y="235" width="620" height="360" rx="12" fill="#fdf4ff" stroke="#e9d5ff" stroke-width="1.5"/>
  <text x="740" y="260" fill="#7e22ce" font-size="13" font-weight="bold">3. 재고 관리</text>

  <rect x="740" y="270" width="580" height="50" rx="8" fill="#f3e8ff" stroke="#a855f7" stroke-width="1.5"/>
  <text x="1030" y="292" text-anchor="middle" fill="#581c87" font-size="12" font-weight="bold">재고 현황 대시보드</text>
  <text x="1030" y="309" text-anchor="middle" fill="#581c87" font-size="10">현재고 · 가용재고 · 예약재고 · 입고예정</text>

  <line x1="1030" y1="320" x2="1030" y2="345" stroke="#64748b" stroke-width="1.5" marker-end="url(#arr)"/>

  <!-- Status badges row -->
  <rect x="740" y="347" width="100" height="40" rx="6" fill="#fee2e2" stroke="#f87171" stroke-width="1.5"/>
  <text x="790" y="363" text-anchor="middle" fill="#991b1b" font-size="10" font-weight="bold">품절</text>
  <text x="790" y="378" text-anchor="middle" fill="#991b1b" font-size="9">out_of_stock</text>

  <rect x="850" y="347" width="100" height="40" rx="6" fill="#fed7aa" stroke="#fb923c" stroke-width="1.5"/>
  <text x="900" y="363" text-anchor="middle" fill="#9a3412" font-size="10" font-weight="bold">위험</text>
  <text x="900" y="378" text-anchor="middle" fill="#9a3412" font-size="9">critical</text>

  <rect x="960" y="347" width="100" height="40" rx="6" fill="#fef9c3" stroke="#facc15" stroke-width="1.5"/>
  <text x="1010" y="363" text-anchor="middle" fill="#713f12" font-size="10" font-weight="bold">주의</text>
  <text x="1010" y="378" text-anchor="middle" fill="#713f12" font-size="9">caution</text>

  <rect x="1070" y="347" width="100" height="40" rx="6" fill="#dcfce7" stroke="#22c55e" stroke-width="1.5"/>
  <text x="1120" y="363" text-anchor="middle" fill="#14532d" font-size="10" font-weight="bold">적정</text>
  <text x="1120" y="378" text-anchor="middle" fill="#14532d" font-size="9">optimal</text>

  <rect x="1180" y="347" width="100" height="40" rx="6" fill="#dbeafe" stroke="#3b82f6" stroke-width="1.5"/>
  <text x="1230" y="363" text-anchor="middle" fill="#1e40af" font-size="10" font-weight="bold">과다</text>
  <text x="1230" y="378" text-anchor="middle" fill="#1e40af" font-size="9">excess</text>

  <line x1="1030" y1="387" x2="1030" y2="412" stroke="#64748b" stroke-width="1.5" marker-end="url(#arr)"/>

  <rect x="740" y="414" width="280" height="50" rx="8" fill="white" stroke="#c084fc" stroke-width="1.5"/>
  <text x="880" y="436" text-anchor="middle" fill="#6b21a8" font-size="12" font-weight="bold">입고 처리</text>
  <text x="880" y="453" text-anchor="middle" fill="#6b21a8" font-size="10">입고 확정 -> 재고 증가</text>

  <rect x="1040" y="414" width="280" height="50" rx="8" fill="white" stroke="#c084fc" stroke-width="1.5"/>
  <text x="1180" y="436" text-anchor="middle" fill="#6b21a8" font-size="12" font-weight="bold">출고 처리</text>
  <text x="1180" y="453" text-anchor="middle" fill="#6b21a8" font-size="10">판매/이동 -> 재고 감소</text>

  <line x1="1030" y1="464" x2="1030" y2="489" stroke="#64748b" stroke-width="1.5" marker-end="url(#arr)"/>

  <rect x="740" y="491" width="580" height="50" rx="8" fill="white" stroke="#c084fc" stroke-width="1.5"/>
  <text x="1030" y="513" text-anchor="middle" fill="#6b21a8" font-size="12" font-weight="bold">재고 이력 추적</text>
  <text x="1030" y="530" text-anchor="middle" fill="#6b21a8" font-size="10">변동 유형 · 수량 · 일시 · 담당자 로그</text>

  <rect x="740" y="551" width="580" height="28" rx="6" fill="#fef3c7" stroke="#f59e0b" stroke-width="1"/>
  <text x="1030" y="569" text-anchor="middle" fill="#92400e" font-size="10">재고 &lt;= ROP 도달시 -&gt; 발주 추천 자동 트리거</text>

  <!-- Divider -->
  <line x1="40" y1="620" x2="1360" y2="620" stroke="#cbd5e1" stroke-width="1" stroke-dasharray="6,4"/>

  <!-- ====== ROW 3: ANALYTICS ====== -->
  <rect x="40" y="635" width="1320" height="380" rx="12" fill="#fff7ed" stroke="#fed7aa" stroke-width="1.5"/>
  <text x="60" y="660" fill="#c2410c" font-size="13" font-weight="bold">4. 분석 · 수요예측</text>

  <!-- 3분류 -->
  <rect x="60" y="670" width="280" height="60" rx="8" fill="#ffedd5" stroke="#fb923c" stroke-width="1.5"/>
  <text x="200" y="694" text-anchor="middle" fill="#7c2d12" font-size="12" font-weight="bold">ABC 분류</text>
  <text x="200" y="711" text-anchor="middle" fill="#7c2d12" font-size="10">파레토 매출 기반</text>
  <text x="200" y="724" text-anchor="middle" fill="#7c2d12" font-size="10">A(상위70%) B(~90%) C(나머지)</text>

  <rect x="560" y="670" width="280" height="60" rx="8" fill="#ffedd5" stroke="#fb923c" stroke-width="1.5"/>
  <text x="700" y="694" text-anchor="middle" fill="#7c2d12" font-size="12" font-weight="bold">XYZ 분류</text>
  <text x="700" y="711" text-anchor="middle" fill="#7c2d12" font-size="10">CV 변동계수 기반</text>
  <text x="700" y="724" text-anchor="middle" fill="#7c2d12" font-size="10">X(CV&lt;0.2) Y(~0.5) Z(CV&gt;0.5)</text>

  <rect x="1060" y="670" width="280" height="60" rx="8" fill="#ffedd5" stroke="#fb923c" stroke-width="1.5"/>
  <text x="1200" y="694" text-anchor="middle" fill="#7c2d12" font-size="12" font-weight="bold">FMR 분류</text>
  <text x="1200" y="711" text-anchor="middle" fill="#7c2d12" font-size="10">월 출고빈도 기반</text>
  <text x="1200" y="724" text-anchor="middle" fill="#7c2d12" font-size="10">F(>=10) M(4~9) R(&lt;=3)</text>

  <!-- Arrows to combine -->
  <line x1="200" y1="730" x2="200" y2="760" stroke="#64748b" stroke-width="1.5" marker-end="url(#arr)"/>
  <line x1="700" y1="730" x2="700" y2="760" stroke="#64748b" stroke-width="1.5" marker-end="url(#arr)"/>
  <line x1="1200" y1="730" x2="1200" y2="760" stroke="#64748b" stroke-width="1.5" marker-end="url(#arr)"/>

  <line x1="200" y1="785" x2="636" y2="785" stroke="#64748b" stroke-width="1.5"/>
  <line x1="700" y1="785" x2="700" y2="785" stroke="#64748b" stroke-width="1.5"/>
  <line x1="764" y1="785" x2="1200" y2="785" stroke="#64748b" stroke-width="1.5"/>
  <line x1="700" y1="785" x2="700" y2="800" stroke="#64748b" stroke-width="1.5" marker-end="url(#arr)"/>

  <rect x="420" y="762" width="560" height="38" rx="8" fill="#fed7aa" stroke="#f97316" stroke-width="2"/>
  <text x="700" y="783" text-anchor="middle" fill="#7c2d12" font-size="13" font-weight="bold">3중 분류 조합 (27가지 전략)</text>
  <text x="700" y="797" text-anchor="middle" fill="#7c2d12" font-size="10">AXF · AYM · BZR 등 ABC x XYZ x FMR 조합</text>

  <line x1="700" y1="800" x2="700" y2="825" stroke="#64748b" stroke-width="1.5" marker-end="url(#arr)"/>

  <!-- Forecast methods -->
  <rect x="60" y="827" width="360" height="80" rx="8" fill="#fef9c3" stroke="#fde047" stroke-width="1.5"/>
  <text x="240" y="851" text-anchor="middle" fill="#713f12" font-size="12" font-weight="bold">SMA - 단순이동평균</text>
  <text x="240" y="869" text-anchor="middle" fill="#713f12" font-size="10">3개월 슬라이딩 이동평균</text>
  <text x="240" y="885" text-anchor="middle" fill="#713f12" font-size="10">F(4월) = (1월+2월+3월) / 3</text>
  <text x="240" y="899" text-anchor="middle" fill="#713f12" font-size="10">MAPE 기반 정확도 평가</text>

  <rect x="520" y="827" width="360" height="80" rx="8" fill="#fef9c3" stroke="#fde047" stroke-width="1.5"/>
  <text x="700" y="851" text-anchor="middle" fill="#713f12" font-size="12" font-weight="bold">SES - 단순지수평활</text>
  <text x="700" y="869" text-anchor="middle" fill="#713f12" font-size="10">F(t+1) = a*D(t) + (1-a)*F(t)</text>
  <text x="700" y="885" text-anchor="middle" fill="#713f12" font-size="10">CV 기반 a 자동 선택</text>
  <text x="700" y="899" text-anchor="middle" fill="#713f12" font-size="10">X->0.6  Y->0.4  Z->0.2</text>

  <rect x="980" y="827" width="360" height="80" rx="8" fill="#fef9c3" stroke="#fde047" stroke-width="1.5"/>
  <text x="1160" y="851" text-anchor="middle" fill="#713f12" font-size="12" font-weight="bold">Holt's - 이중지수평활</text>
  <text x="1160" y="869" text-anchor="middle" fill="#713f12" font-size="10">Level + Trend 이중 평활</text>
  <text x="1160" y="885" text-anchor="middle" fill="#713f12" font-size="10">추세가 있는 수요에 적합</text>
  <text x="1160" y="899" text-anchor="middle" fill="#713f12" font-size="10">데이터 4개 이상 필요</text>

  <line x1="240" y1="907" x2="240" y2="932" stroke="#64748b" stroke-width="1.5"/>
  <line x1="700" y1="907" x2="700" y2="932" stroke="#64748b" stroke-width="1.5"/>
  <line x1="1160" y1="907" x2="1160" y2="932" stroke="#64748b" stroke-width="1.5"/>
  <line x1="240" y1="932" x2="1160" y2="932" stroke="#64748b" stroke-width="1.5"/>
  <line x1="700" y1="932" x2="700" y2="947" stroke="#64748b" stroke-width="1.5" marker-end="url(#arr)"/>

  <rect x="420" y="949" width="560" height="40" rx="8" fill="#dcfce7" stroke="#22c55e" stroke-width="1.5"/>
  <text x="700" y="967" text-anchor="middle" fill="#14532d" font-size="12" font-weight="bold">MAPE 평가 -> 최적 모델 자동 선택 -> 다음달 예측값 출력</text>
  <text x="700" y="983" text-anchor="middle" fill="#14532d" font-size="10">예측값 -> PSI 계획 및 발주 추천에 반영</text>

  <!-- Divider -->
  <line x1="40" y1="1040" x2="1360" y2="1040" stroke="#cbd5e1" stroke-width="1" stroke-dasharray="6,4"/>

  <!-- ====== ROW 4: PSI + SUPPLIER + ORDER ====== -->
  <!-- PSI -->
  <rect x="40" y="1055" width="420" height="340" rx="12" fill="#ecfdf5" stroke="#a7f3d0" stroke-width="1.5"/>
  <text x="60" y="1080" fill="#065f46" font-size="13" font-weight="bold">5. PSI 계획</text>

  <rect x="60" y="1090" width="380" height="50" rx="8" fill="#d1fae5" stroke="#34d399" stroke-width="1.5"/>
  <text x="250" y="1112" text-anchor="middle" fill="#064e3b" font-size="12" font-weight="bold">수요 입력</text>
  <text x="250" y="1129" text-anchor="middle" fill="#064e3b" font-size="10">예측값 자동 반영 / 수동 수정 가능</text>

  <line x1="250" y1="1140" x2="250" y2="1160" stroke="#64748b" stroke-width="1.5" marker-end="url(#arr)"/>

  <rect x="60" y="1162" width="380" height="50" rx="8" fill="#d1fae5" stroke="#34d399" stroke-width="1.5"/>
  <text x="250" y="1184" text-anchor="middle" fill="#064e3b" font-size="12" font-weight="bold">생산 계획</text>
  <text x="250" y="1201" text-anchor="middle" fill="#064e3b" font-size="10">LOT 크기 / 리드타임 반영</text>

  <line x1="250" y1="1212" x2="250" y2="1232" stroke="#64748b" stroke-width="1.5" marker-end="url(#arr)"/>

  <rect x="60" y="1234" width="380" height="50" rx="8" fill="#d1fae5" stroke="#34d399" stroke-width="1.5"/>
  <text x="250" y="1256" text-anchor="middle" fill="#064e3b" font-size="12" font-weight="bold">재고 계획</text>
  <text x="250" y="1273" text-anchor="middle" fill="#064e3b" font-size="10">기말재고 = 기초 + 생산 - 판매</text>

  <line x1="250" y1="1284" x2="250" y2="1304" stroke="#64748b" stroke-width="1.5" marker-end="url(#arr)"/>

  <rect x="60" y="1306" width="380" height="70" rx="8" fill="white" stroke="#6ee7b7" stroke-width="1.5"/>
  <text x="250" y="1328" text-anchor="middle" fill="#064e3b" font-size="12" font-weight="bold">PSI 월별 계획 테이블 (12개월)</text>
  <text x="250" y="1346" text-anchor="middle" fill="#064e3b" font-size="10">P(생산) S(판매) I(재고) O(발주) 행별 표시</text>
  <text x="250" y="1363" text-anchor="middle" fill="#064e3b" font-size="10">시나리오 시뮬레이션 / Excel 내보내기</text>

  <!-- SUPPLIER -->
  <rect x="490" y="1055" width="400" height="340" rx="12" fill="#f0f9ff" stroke="#bae6fd" stroke-width="1.5"/>
  <text x="510" y="1080" fill="#0369a1" font-size="13" font-weight="bold">6. 공급자 관리</text>

  <rect x="510" y="1090" width="360" height="50" rx="8" fill="#e0f2fe" stroke="#38bdf8" stroke-width="1.5"/>
  <text x="690" y="1112" text-anchor="middle" fill="#0c4a6e" font-size="12" font-weight="bold">공급자 목록</text>
  <text x="690" y="1129" text-anchor="middle" fill="#0c4a6e" font-size="10">업체명 / 연락처 / 리드타임 / 결제조건</text>

  <line x1="690" y1="1140" x2="690" y2="1160" stroke="#64748b" stroke-width="1.5" marker-end="url(#arr)"/>

  <rect x="510" y="1162" width="170" height="50" rx="8" fill="white" stroke="#7dd3fc" stroke-width="1.5"/>
  <text x="595" y="1184" text-anchor="middle" fill="#0369a1" font-size="12" font-weight="bold">성과 평가</text>
  <text x="595" y="1201" text-anchor="middle" fill="#0369a1" font-size="10">납기율 / 불량률</text>

  <rect x="700" y="1162" width="170" height="50" rx="8" fill="white" stroke="#7dd3fc" stroke-width="1.5"/>
  <text x="785" y="1184" text-anchor="middle" fill="#0369a1" font-size="12" font-weight="bold">연결 제품</text>
  <text x="785" y="1201" text-anchor="middle" fill="#0369a1" font-size="10">공급 SKU 목록</text>

  <line x1="690" y1="1212" x2="690" y2="1232" stroke="#64748b" stroke-width="1.5" marker-end="url(#arr)"/>

  <rect x="510" y="1234" width="360" height="50" rx="8" fill="white" stroke="#7dd3fc" stroke-width="1.5"/>
  <text x="690" y="1256" text-anchor="middle" fill="#0369a1" font-size="12" font-weight="bold">발주서 생성시 공급자 자동 매핑</text>
  <text x="690" y="1273" text-anchor="middle" fill="#0369a1" font-size="10">공급자 리드타임 -> 안전재고 산출에 반영</text>

  <rect x="510" y="1306" width="360" height="70" rx="8" fill="#f0f9ff" stroke="#bae6fd" stroke-width="1"/>
  <text x="690" y="1330" text-anchor="middle" fill="#0369a1" font-size="11" font-weight="bold">공급자 선정 기준</text>
  <text x="690" y="1348" text-anchor="middle" fill="#0369a1" font-size="10">리드타임 짧을수록 ROP 낮춤</text>
  <text x="690" y="1365" text-anchor="middle" fill="#0369a1" font-size="10">납기 신뢰도 -> 서비스율 Z값에 반영</text>

  <!-- ORDER -->
  <rect x="920" y="1055" width="440" height="340" rx="12" fill="#fef2f2" stroke="#fecaca" stroke-width="1.5"/>
  <text x="940" y="1080" fill="#b91c1c" font-size="13" font-weight="bold">7. 발주 관리</text>

  <rect x="940" y="1090" width="400" height="50" rx="8" fill="#fee2e2" stroke="#f87171" stroke-width="1.5"/>
  <text x="1140" y="1112" text-anchor="middle" fill="#7f1d1d" font-size="12" font-weight="bold">발주 추천 트리거</text>
  <text x="1140" y="1129" text-anchor="middle" fill="#7f1d1d" font-size="10">재고 &lt;= ROP 도달시 자동 발주 제안</text>

  <line x1="1140" y1="1140" x2="1140" y2="1160" stroke="#64748b" stroke-width="1.5" marker-end="url(#arr)"/>

  <rect x="940" y="1162" width="400" height="50" rx="8" fill="white" stroke="#fca5a5" stroke-width="1.5"/>
  <text x="1140" y="1184" text-anchor="middle" fill="#b91c1c" font-size="12" font-weight="bold">발주량 계산</text>
  <text x="1140" y="1201" text-anchor="middle" fill="#b91c1c" font-size="10">EOQ 공식 / ROP 보충량 / 공급자 MOQ 반영</text>

  <line x1="1140" y1="1212" x2="1140" y2="1232" stroke="#64748b" stroke-width="1.5" marker-end="url(#arr)"/>

  <!-- Decision diamond -->
  <polygon points="1140,1235 1220,1265 1140,1295 1060,1265" fill="#fef9c3" stroke="#f59e0b" stroke-width="2"/>
  <text x="1140" y="1261" text-anchor="middle" fill="#713f12" font-size="11" font-weight="bold">승인?</text>
  <text x="1140" y="1275" text-anchor="middle" fill="#713f12" font-size="9">검토</text>

  <line x1="1060" y1="1265" x2="940" y2="1295" stroke="#64748b" stroke-width="1.5" marker-end="url(#arr)"/>
  <text x="1000" y="1288" text-anchor="middle" fill="#b91c1c" font-size="10">보류</text>

  <line x1="1220" y1="1265" x2="1340" y2="1295" stroke="#64748b" stroke-width="1.5" marker-end="url(#arr)"/>
  <text x="1290" y="1288" text-anchor="middle" fill="#15803d" font-size="10">확정</text>

  <rect x="940" y="1297" width="180" height="40" rx="8" fill="#fef9c3" stroke="#fde047" stroke-width="1.5"/>
  <text x="1030" y="1322" text-anchor="middle" fill="#713f12" font-size="11">발주 보류</text>

  <rect x="1250" y="1297" width="100" height="40" rx="8" fill="#dcfce7" stroke="#22c55e" stroke-width="1.5"/>
  <text x="1300" y="1322" text-anchor="middle" fill="#14532d" font-size="11">발주 확정</text>

  <line x1="1300" y1="1337" x2="1300" y2="1357" stroke="#64748b" stroke-width="1.5" marker-end="url(#arr)"/>

  <rect x="940" y="1359" width="400" height="36" rx="8" fill="#dcfce7" stroke="#22c55e" stroke-width="1.5"/>
  <text x="1140" y="1377" text-anchor="middle" fill="#14532d" font-size="11" font-weight="bold">입고 확정 -> 재고 자동 증가 반영</text>

  <!-- Divider -->
  <line x1="40" y1="1420" x2="1360" y2="1420" stroke="#cbd5e1" stroke-width="1" stroke-dasharray="6,4"/>

  <!-- ====== ROW 5: AI ====== -->
  <rect x="40" y="1435" width="1320" height="220" rx="12" fill="#faf5ff" stroke="#e9d5ff" stroke-width="1.5"/>
  <text x="60" y="1460" fill="#7e22ce" font-size="13" font-weight="bold">8. AI 어시스턴트 (Claude claude-sonnet-4-6 · Tool Use)</text>

  <rect x="60" y="1470" width="200" height="160" rx="8" fill="#f3e8ff" stroke="#a855f7" stroke-width="1.5"/>
  <text x="160" y="1495" text-anchor="middle" fill="#581c87" font-size="12" font-weight="bold">재고 진단</text>
  <text x="160" y="1515" text-anchor="middle" fill="#581c87" font-size="10">위험 제품 식별</text>
  <text x="160" y="1532" text-anchor="middle" fill="#581c87" font-size="10">이상 패턴 감지</text>
  <text x="160" y="1549" text-anchor="middle" fill="#581c87" font-size="10">조치 우선순위</text>
  <text x="160" y="1566" text-anchor="middle" fill="#581c87" font-size="10">손익 임팩트 분석</text>
  <text x="160" y="1583" text-anchor="middle" fill="#581c87" font-size="10">안전재고 적정성</text>
  <text x="160" y="1600" text-anchor="middle" fill="#581c87" font-size="10">재고회전율 평가</text>

  <rect x="280" y="1470" width="200" height="160" rx="8" fill="#f3e8ff" stroke="#a855f7" stroke-width="1.5"/>
  <text x="380" y="1495" text-anchor="middle" fill="#581c87" font-size="12" font-weight="bold">수요예측 해석</text>
  <text x="380" y="1515" text-anchor="middle" fill="#581c87" font-size="10">예측 근거 설명</text>
  <text x="380" y="1532" text-anchor="middle" fill="#581c87" font-size="10">모델 선택 이유</text>
  <text x="380" y="1549" text-anchor="middle" fill="#581c87" font-size="10">신뢰도 평가</text>
  <text x="380" y="1566" text-anchor="middle" fill="#581c87" font-size="10">계절성 감지</text>

  <rect x="500" y="1470" width="200" height="160" rx="8" fill="#f3e8ff" stroke="#a855f7" stroke-width="1.5"/>
  <text x="600" y="1495" text-anchor="middle" fill="#581c87" font-size="12" font-weight="bold">발주 최적화</text>
  <text x="600" y="1515" text-anchor="middle" fill="#581c87" font-size="10">EOQ 산출 설명</text>
  <text x="600" y="1532" text-anchor="middle" fill="#581c87" font-size="10">발주 타이밍 제안</text>
  <text x="600" y="1549" text-anchor="middle" fill="#581c87" font-size="10">공급자 비교</text>
  <text x="600" y="1566" text-anchor="middle" fill="#581c87" font-size="10">비용 최소화 전략</text>

  <rect x="720" y="1470" width="200" height="160" rx="8" fill="#f3e8ff" stroke="#a855f7" stroke-width="1.5"/>
  <text x="820" y="1495" text-anchor="middle" fill="#581c87" font-size="12" font-weight="bold">PSI 시뮬레이션</text>
  <text x="820" y="1515" text-anchor="middle" fill="#581c87" font-size="10">시나리오 비교</text>
  <text x="820" y="1532" text-anchor="middle" fill="#581c87" font-size="10">리스크 분석</text>
  <text x="820" y="1549" text-anchor="middle" fill="#581c87" font-size="10">재고 최적 수준</text>
  <text x="820" y="1566" text-anchor="middle" fill="#581c87" font-size="10">비용/서비스율 균형</text>

  <rect x="940" y="1470" width="200" height="160" rx="8" fill="#f3e8ff" stroke="#a855f7" stroke-width="1.5"/>
  <text x="1040" y="1495" text-anchor="middle" fill="#581c87" font-size="12" font-weight="bold">경영진 리포트</text>
  <text x="1040" y="1515" text-anchor="middle" fill="#581c87" font-size="10">월간 KPI 요약</text>
  <text x="1040" y="1532" text-anchor="middle" fill="#581c87" font-size="10">재고 회전율</text>
  <text x="1040" y="1549" text-anchor="middle" fill="#581c87" font-size="10">투자 대비 효율</text>
  <text x="1040" y="1566" text-anchor="middle" fill="#581c87" font-size="10">개선 포인트</text>

  <rect x="1160" y="1470" width="200" height="160" rx="8" fill="#f3e8ff" stroke="#a855f7" stroke-width="1.5"/>
  <text x="1260" y="1495" text-anchor="middle" fill="#581c87" font-size="12" font-weight="bold">자연어 질의</text>
  <text x="1260" y="1515" text-anchor="middle" fill="#581c87" font-size="10">"이번달 발주 필요한</text>
  <text x="1260" y="1532" text-anchor="middle" fill="#581c87" font-size="10"> 제품 알려줘"</text>
  <text x="1260" y="1549" text-anchor="middle" fill="#581c87" font-size="10">"A등급 재고 현황?"</text>
  <text x="1260" y="1566" text-anchor="middle" fill="#581c87" font-size="10">Tool Use 기반 실행</text>

  <!-- Divider -->
  <line x1="40" y1="1678" x2="1360" y2="1678" stroke="#cbd5e1" stroke-width="1" stroke-dasharray="6,4"/>

  <!-- ====== TECH STACK ====== -->
  <rect x="40" y="1693" width="1320" height="130" rx="12" fill="#f1f5f9" stroke="#cbd5e1" stroke-width="1.5"/>
  <text x="60" y="1718" fill="#374151" font-size="13" font-weight="bold">9. 기술 스택 / 핵심 알고리즘</text>

  <rect x="60" y="1728" width="280" height="80" rx="8" fill="#dbeafe" stroke="#3b82f6" stroke-width="1.5"/>
  <text x="200" y="1748" text-anchor="middle" fill="#1e40af" font-size="11" font-weight="bold">Frontend</text>
  <text x="200" y="1765" text-anchor="middle" fill="#1e40af" font-size="10">Next.js 15 · React 19 · TypeScript</text>
  <text x="200" y="1780" text-anchor="middle" fill="#1e40af" font-size="10">Tailwind CSS · shadcn/ui · Recharts</text>
  <text x="200" y="1795" text-anchor="middle" fill="#1e40af" font-size="10">Clerk 인증 · Vercel 배포</text>

  <rect x="360" y="1728" width="280" height="80" rx="8" fill="#dcfce7" stroke="#22c55e" stroke-width="1.5"/>
  <text x="500" y="1748" text-anchor="middle" fill="#14532d" font-size="11" font-weight="bold">Backend</text>
  <text x="500" y="1765" text-anchor="middle" fill="#14532d" font-size="10">Next.js App Router · Server Actions</text>
  <text x="500" y="1780" text-anchor="middle" fill="#14532d" font-size="10">PostgreSQL (Supabase) · Drizzle ORM</text>
  <text x="500" y="1795" text-anchor="middle" fill="#14532d" font-size="10">RLS 멀티테넌트 · Claude API</text>

  <rect x="660" y="1728" width="340" height="80" rx="8" fill="#fff7ed" stroke="#fb923c" stroke-width="1.5"/>
  <text x="830" y="1748" text-anchor="middle" fill="#c2410c" font-size="11" font-weight="bold">SCM 핵심 알고리즘</text>
  <text x="830" y="1763" text-anchor="middle" fill="#7c2d12" font-size="9">SMA(3개월이동) · SES(CV 기반 a) · Holt's(이중지수)</text>
  <text x="830" y="1778" text-anchor="middle" fill="#7c2d12" font-size="9">sigma = 1.25*MAD  |  SS = Z*sigma_d*sqrt(LT)</text>
  <text x="830" y="1793" text-anchor="middle" fill="#7c2d12" font-size="9">CV: X(&lt;0.2) Y(0.2~0.5) Z(&gt;0.5)  |  FMR: F(>=10) M(4~9) R(&lt;=3)</text>
  <text x="830" y="1808" text-anchor="middle" fill="#7c2d12" font-size="9">3중분류 27조합 전략 매트릭스</text>

  <rect x="1020" y="1728" width="320" height="80" rx="8" fill="#fdf4ff" stroke="#d946ef" stroke-width="1.5"/>
  <text x="1180" y="1748" text-anchor="middle" fill="#701a75" font-size="11" font-weight="bold">데이터 플로우</text>
  <text x="1180" y="1765" text-anchor="middle" fill="#701a75" font-size="10">판매데이터 -> 수요예측 -> PSI 계획</text>
  <text x="1180" y="1780" text-anchor="middle" fill="#701a75" font-size="10">재고&lt;=ROP -> 발주추천 -> 입고 -> 재고증가</text>
  <text x="1180" y="1795" text-anchor="middle" fill="#701a75" font-size="10">공급자 리드타임 -> 안전재고 -> ROP</text>

  <!-- Arrow markers -->
  <defs>
    <marker id="arr" markerWidth="8" markerHeight="6" refX="7" refY="3" orient="auto">
      <polygon points="0 0, 8 3, 0 6" fill="#64748b"/>
    </marker>
  </defs>

</svg>
